# xmcd
#
# Track frame offsets:
#	150
#	16336
#	35640
#	54579
#	72078
#	88145
#	108469
#	121187
#	136430
#	154314
#	171858
#
# Disc length: 2529 seconds
#
# Revision: 1
# Processed by: cddbd v1.5.2PL0 Copyright (c) Steve Scherf et al.
# Submitted via: audiograbber 1.83.01
#
DISCID=9509df0b
DTITLE=Martha High and Speedometer - Soul Overdue
DYEAR=2012
DGENRE=Funk
TTITLE0=No More Heartaches
TTITLE1=Trouble Man
TTITLE2=Never Never Love A Married Man
TTITLE3=Id Rather Go Blind
TTITLE4=No Man Worries
TTITLE5=Sunny
TTITLE6=You Got It
TTITLE7=Save Me
TTITLE8=You Got Me Started
TTITLE9=Mama Feelgood
TTITLE10=Dragging Me Down
EXTD=
EXTT0=
EXTT1=
EXTT2=
EXTT3=
EXTT4=
EXTT5=
EXTT6=
EXTT7=
EXTT8=
EXTT9=
EXTT10=
PLAYORDER=
